P3
# 4x8 Random 
8 4
255
255   0   0     0 255   0     0   0 255   255 255   0     0 255 255   255   0 255   128 128 128     0   0   0
255 255 255   128   0   0     0 128   0     0   0 128   128 128   0     0 128 128   128   0 128    64  64  64
255 128 128   128 255 128   128 128 255    64 128 128   128  64 128   128 128  64    32  32  32    64  32  32
32   64  32    32  32  64     96  96  96   160 160 160   192  64   0    64 192   0     0  64 192   192 192  64
