P3
# Gradient pixelmap
4 4
255
0   0   0    85  85  85   170 170 170   255 255 255
0   0   0    85  85  85   170 170 170   255 255 255
0   0   0    85  85  85   170 170 170   255 255 255
0   0   0    85  85  85   170 170 170   255 255 255
