P3
# Random color pixelmap
5 5
255
255   0   0   0 255   0   0   0 255   255 255   0   255   0 255
0 255 255   255   0 255   0 255   0   255   0   0   0   0 255
255 255 255   128 128 128   64  64  64   32  32  32   16  16  16
0   0   0     0   0   0    0   0   0     0   0   0    0  0  0
255 255 255   255 255   0   255   0 255   0 255 255   255   0   0
